<?xml version="1.0" standalone="no"?>
<!DOCTYPE svg PUBLIC "-//W3C//DTD SVG 20010904//EN"
 "http://www.w3.org/TR/2001/REC-SVG-20010904/DTD/svg10.dtd">
<svg version="1.0" xmlns="http://www.w3.org/2000/svg"
 width="98.000000pt" height="98.000000pt" viewBox="0 0 98.000000 98.000000"
 preserveAspectRatio="xMidYMid meet">
<metadata>
Created by potrace 1.14, written by Peter Selinger 2001-2017
</metadata>
<g transform="translate(0.000000,98.000000) scale(0.100000,-0.100000)"
fill="#000000" stroke="none">
<path d="M0 490 l0 -490 490 0 490 0 0 490 0 490 -490 0 -490 0 0 -490z m830
10 l0 -310 -345 0 -345 0 0 310 0 310 345 0 345 0 0 -310z"/>
<path d="M160 500 l0 -290 325 0 325 0 0 290 0 290 -325 0 -325 0 0 -290z
m405 125 c14 -13 25 -34 25 -45 0 -24 -18 -61 -34 -72 -12 -8 18 -78 34 -78 5
0 10 -9 10 -21 0 -17 -5 -20 -36 -17 -33 3 -38 7 -53 48 -12 32 -23 46 -39 48
-19 3 -22 -1 -22 -27 0 -21 5 -31 15 -31 8 0 15 -9 15 -20 0 -18 -7 -20 -55
-20 -48 0 -55 2 -55 20 0 11 5 20 10 20 6 0 10 37 10 90 0 53 -4 90 -10 90 -5
0 -10 9 -10 20 0 18 7 20 85 20 78 0 88 -2 110 -25z"/>
<path d="M450 570 c0 -30 2 -31 38 -28 32 3 37 6 37 28 0 22 -5 25 -37 28 -36
3 -38 2 -38 -28z"/>
</g>
</svg>
